PathFileType	4	(x/y/z)	S01_PSF_T06.trc
DataRate	CameraRate	NumFrames	NumMarkers	Units	OrigDataRate	OrigDataStartFrame	OrigNumFrames
240	240	11	51	mm	240	413	471
Frame#	Time	Sternum			R.Acromium			L.Acromium			Top.Head			R.ASIS			L.ASIS			R.PSIS			L.PSIS			R.Great.Tro			L.Great.Tro			R.Iliac.Crest			L.Iliac.Crest			V.Sacral			R.Thigh.Upper.Post			R.Thigh.Lower.Ant			R.Thigh.Lower.Post			R.Thigh.Upper.Ant			R.Knee.Lat			R.Knee.Med			R.Shank.Upper.Post			R.Shank.Lower.Ant			R.Shank.Lower.Post			R.Shank.Upper.Ant			R.Ankle.Lat			R.Ankle.Med			R.Heel.Upper			R.Heel.Med			R.Heel.Lat			R.Toe.Lat			R.Toe.Med			R.Toe.Tip			L.Thigh.Upper.Post			L.Thigh.Lower.Ant			L.Thigh.Lower.Post			L.Thigh.Upper.Ant			L.Knee.Lat			L.Knee.Med			L.Shank.Upper.Post			L.Shank.Lower.Ant			L.Shank.Lower.Post			L.Shank.Upper.Ant			L.Ankle.Lat			L.Ankle.Med			L.Heel.Upper			L.Heel.Med			L.Heel.Lat			L.Toe.Lat			L.Toe.Med			L.Toe.Tip			Cervical.Spine			Back			
		X1	Y1	Z1	X2	Y2	Z2	X3	Y3	Z3	X4	Y4	Z4	X5	Y5	Z5	X6	Y6	Z6	X7	Y7	Z7	X8	Y8	Z8	X9	Y9	Z9	X10	Y10	Z10	X11	Y11	Z11	X12	Y12	Z12	X13	Y13	Z13	X14	Y14	Z14	X15	Y15	Z15	X16	Y16	Z16	X17	Y17	Z17	X18	Y18	Z18	X19	Y19	Z19	X20	Y20	Z20	X21	Y21	Z21	X22	Y22	Z22	X23	Y23	Z23	X24	Y24	Z24	X25	Y25	Z25	X26	Y26	Z26	X27	Y27	Z27	X28	Y28	Z28	X29	Y29	Z29	X30	Y30	Z30	X31	Y31	Z31	X32	Y32	Z32	X33	Y33	Z33	X34	Y34	Z34	X35	Y35	Z35	X36	Y36	Z36	X37	Y37	Z37	X38	Y38	Z38	X39	Y39	Z39	X40	Y40	Z40	X41	Y41	Z41	X42	Y42	Z42	X43	Y43	Z43	X44	Y44	Z44	X45	Y45	Z45	X46	Y46	Z46	X47	Y47	Z47	X48	Y48	Z48	X49	Y49	Z49	X50	Y50	Z50	X51	Y51	Z51	

413	1.7167	944.14	1256.7	267.58	844.36	1497.2	462.23	819.4	1533.8	134.2	905.63	1822.5	315.37	897.42	1011.5	414.32	882.27	1002.8	149.07	653.52	1048.4	337.59	644.95	1043.6	233.93	829.96	961.75	499.57	770.11	950.38	76.729	817.47	1103.1	489.97	772.12	1090.6	83.634	636.05	1009.3	285.14	911.04	661.6	461.29	998.44	618.51	426.25	940.41	580.99	434.71	972.43	701.34	454.97	980.44	528.95	424.8	971.74	538.24	282.13	928.82	368.67	442.35	985.03	287.2	392.49	923.04	299.05	429.22	988.15	358.39	412.98	911.96	102.34	385.37	941.34	108.89	291.7	840.85	72.611	325.89	856.5	43.746	297.14	851.89	43.247	361.34	1043.3	36.965	418.56	1073.9	41.045	294.83	1137.4	60.717	349.05	758.63	666.76	89.721	844.13	602.01	62.38	777.44	577.7	97.88	818.23	694.03	58.786	820.79	503.43	65.849	879.68	486.68	206.86	697.28	454.12	62.432	669.39	347.76	81.876	638.46	404.17	70.18	727.82	396.74	69.817	468.46	271.66	111.92	506.01	255.03	204.51	421.09	325.7	168.35	409.67	307.53	205.42	395.05	306.03	144.9	456.57	109.01	103.5	500.85	95.954	217.86	527.99	41.835	161.2	750.5	1578.2	310.06	645.22	1269.5	307.52
414	1.7208	949.07	1257.5	267.62	849.81	1498	462.6	824.2	1534.8	134.65	910.97	1823.4	316.08	902.65	1012	414.56	886.86	1003.7	149.2	658.58	1049.3	338.45	649.79	1044.4	234.84	835.22	962.36	499.92	774.79	951.36	77.247	822.95	1103.8	490.51	776.21	1091.2	84.035	640.93	1010.2	286.14	914.39	661.78	461.46	1001.5	618.16	426.33	943.23	580.98	434.83	975.98	701.14	455.07	982.87	528.67	424.87	974.19	538.04	282.19	930.35	368.66	442.4	986.14	286.94	392.5	924.23	299.06	429.26	989.63	358.1	413	912.09	102.4	385.3	941.41	108.9	291.62	840.89	72.667	325.89	856.51	43.789	297.13	851.92	43.314	361.33	1043.4	36.986	418.56	1073.9	41.005	294.79	1137.4	60.611	349.03	767.19	667.49	90.197	853.2	603.63	62.266	787.07	578.65	98.407	826.3	695.38	58.826	831.15	505.25	65.737	890.23	488.7	206.97	707.96	456.2	62.519	680.04	349.82	81.888	649.14	406.28	70.272	738.48	398.79	69.797	479.02	274.35	112.23	516.91	256.87	204.51	431.75	327.76	169.33	420.51	309.2	206.25	405.64	308.29	145.76	467.17	111.78	102.06	512.14	97.441	216.02	538.79	43.648	158.73	755.66	1579.1	310.71	650.25	1270.4	308.37
415	1.725	953.99	1258.4	267.66	855.23	1498.8	462.94	828.96	1535.8	135.08	916.3	1824.2	316.73	907.86	1012.6	414.8	891.44	1004.7	149.33	663.62	1050.3	339.28	654.62	1045.2	235.72	840.43	962.96	500.27	779.48	952.39	77.747	828.4	1104.5	491.02	780.29	1091.8	84.422	645.81	1011.1	287.08	917.68	661.97	461.63	1004.5	617.81	426.41	945.98	580.98	434.94	979.45	700.94	455.16	985.22	528.39	424.94	976.55	537.85	282.26	931.85	368.65	442.47	987.22	286.7	392.51	925.39	299.08	429.31	991.07	357.82	413.03	912.21	102.47	385.24	941.49	108.92	291.56	840.94	72.732	325.88	856.52	43.841	297.12	851.96	43.386	361.33	1043.4	36.998	418.55	1074	40.968	294.77	1137.5	60.502	349.02	775.73	668.33	90.662	862.24	605.36	62.185	796.66	579.72	98.94	834.35	696.82	58.873	841.44	507.19	65.669	900.69	490.84	207.11	718.54	458.29	62.664	690.7	351.85	81.916	659.78	408.32	70.419	749.1	400.88	69.803	489.68	276.79	112.57	527.93	258.49	204.53	442.39	329.43	170.33	431.36	310.44	207.1	416.28	310.12	146.64	478.24	114.33	100.6	523.84	98.772	214.18	550.17	45.458	156.25	760.79	1580.1	311.33	655.25	1271.4	309.22
416	1.7292	958.87	1259.2	267.68	860.63	1499.7	463.27	833.68	1536.8	135.48	921.63	1825.1	317.33	913.04	1013.2	415.04	896.02	1005.8	149.45	668.65	1051.3	340.08	659.46	1046	236.56	845.59	963.57	500.6	784.18	953.49	78.228	833.82	1105.3	491.5	784.37	1092.5	84.8	650.67	1012	287.97	920.91	662.18	461.81	1007.4	617.47	426.5	948.65	580.99	435.07	982.86	700.75	455.25	987.51	528.13	425.02	978.83	537.65	282.35	933.31	368.64	442.56	988.26	286.46	392.52	926.53	299.1	429.38	992.46	357.56	413.07	912.35	102.55	385.18	941.57	108.94	291.51	840.99	72.806	325.88	856.53	43.903	297.1	852.01	43.464	361.33	1043.4	37.003	418.55	1074	40.932	294.74	1137.5	60.39	349.01	784.25	669.27	91.105	871.25	607.19	62.135	806.21	580.89	99.466	842.37	698.35	58.924	851.65	509.22	65.643	911.06	493.09	207.26	729.03	460.37	62.864	701.37	353.85	81.958	670.36	410.28	70.619	759.68	402.99	69.832	500.46	278.96	112.93	539.06	259.89	204.57	453.04	330.7	171.35	442.24	311.26	207.95	426.96	311.53	147.52	489.73	116.64	99.137	535.91	99.937	212.34	562.08	47.234	153.79	765.91	1581.1	311.92	660.23	1272.4	310.06
417	1.7333	963.74	1260.2	267.7	866.01	1500.6	463.57	838.38	1537.8	135.86	926.95	1826	317.87	918.2	1013.8	415.28	900.61	1006.9	149.58	673.65	1052.3	340.83	664.3	1047	237.35	850.69	964.17	500.91	788.9	954.64	78.689	839.21	1106	491.95	788.46	1093.3	85.174	655.52	1013	288.8	924.08	662.39	461.99	1010.2	617.13	426.6	951.25	581.01	435.2	986.19	700.56	455.33	989.72	527.87	425.11	981.03	537.46	282.44	934.72	368.62	442.66	989.27	286.24	392.54	927.63	299.12	429.47	993.81	357.3	413.11	912.48	102.62	385.13	941.66	108.98	291.47	841.04	72.89	325.89	856.55	43.974	297.09	852.06	43.548	361.33	1043.4	37	418.55	1074	40.898	294.72	1137.6	60.275	349.01	792.73	670.3	91.518	880.23	609.12	62.113	815.71	582.16	99.971	850.37	699.96	58.976	861.78	511.33	65.655	921.35	495.44	207.43	739.43	462.42	63.116	712.07	355.79	82.009	680.91	412.16	70.866	770.23	405.1	69.881	511.34	280.84	113.3	550.31	261.07	204.62	463.69	331.6	172.36	453.16	311.7	208.79	437.7	312.51	148.39	501.62	118.69	97.681	548.33	100.93	210.54	574.48	48.945	151.36	771.01	1582.1	312.48	665.19	1273.5	310.91
418	1.7375	968.59	1261.1	267.72	871.35	1501.6	463.85	843.04	1538.8	136.22	932.26	1827	318.36	923.33	1014.4	415.53	905.19	1008.1	149.71	678.63	1053.3	341.54	669.14	1047.9	238.09	855.74	964.79	501.22	793.65	955.85	79.129	844.56	1106.8	492.37	792.58	1094.1	85.55	660.37	1014.1	289.56	927.18	662.61	462.17	1013	616.79	426.71	953.78	581.03	435.33	989.46	700.37	455.41	991.85	527.63	425.21	983.16	537.27	282.55	936.08	368.62	442.78	990.24	286.04	392.57	928.7	299.14	429.56	995.1	357.06	413.17	912.61	102.7	385.1	941.75	109.02	291.44	841.1	72.981	325.9	856.57	44.053	297.08	852.11	43.636	361.33	1043.5	36.991	418.55	1074.1	40.866	294.71	1137.6	60.157	349.01	801.19	671.42	91.893	889.18	611.14	62.117	825.16	583.52	100.45	858.35	701.65	59.027	871.85	513.52	65.704	931.55	497.9	207.62	749.74	464.43	63.414	722.79	357.66	82.067	691.42	413.92	71.154	780.75	407.21	69.95	522.33	282.43	113.67	561.66	262.03	204.68	474.36	332.13	173.34	464.12	311.75	209.6	448.5	313.09	149.23	513.87	120.47	96.246	561.07	101.75	208.77	587.33	50.567	149	776.09	1583.2	313.02	670.13	1274.6	311.74
419	1.7417	973.42	1262	267.74	876.68	1502.6	464.12	847.67	1539.9	136.56	937.56	1827.9	318.8	928.42	1015.1	415.78	909.79	1009.3	149.85	683.59	1054.3	342.21	674	1049	238.78	860.74	965.41	501.51	798.44	957.1	79.547	849.86	1107.6	492.75	796.74	1095	85.932	665.22	1015.1	290.26	930.23	662.83	462.36	1015.7	616.46	426.83	956.24	581.07	435.48	992.67	700.18	455.5	993.92	527.39	425.32	985.23	537.08	282.67	937.4	368.61	442.91	991.17	285.85	392.61	929.73	299.17	429.67	996.35	356.84	413.24	912.75	102.78	385.07	941.85	109.07	291.43	841.16	73.08	325.91	856.6	44.14	297.07	852.16	43.728	361.34	1043.5	36.976	418.56	1074.1	40.835	294.7	1137.6	60.037	349.02	809.61	672.61	92.222	898.1	613.24	62.145	834.55	584.97	100.88	866.3	703.41	59.073	881.84	515.76	65.786	941.68	500.45	207.82	759.97	466.39	63.755	733.53	359.45	82.13	701.9	415.58	71.476	791.25	409.29	70.035	533.42	283.72	114.03	573.13	262.77	204.73	485.06	332.3	174.29	475.13	311.44	210.37	459.36	313.26	150.02	526.46	121.98	94.842	574.1	102.39	207.06	600.59	52.08	146.71	781.15	1584.2	313.53	675.06	1275.7	312.58
420	1.7458	978.23	1263	267.76	881.98	1503.6	464.37	852.27	1540.9	136.89	942.86	1828.8	319.17	933.49	1015.8	416.04	914.4	1010.5	150.02	688.53	1055.4	342.82	678.86	1050	239.42	865.69	966.05	501.8	803.26	958.4	79.94	855.13	1108.5	493.11	800.93	1096.1	86.323	670.07	1016.2	290.89	933.21	663.07	462.55	1018.3	616.13	426.97	958.63	581.12	435.63	995.81	699.99	455.59	995.9	527.16	425.44	987.22	536.9	282.81	938.66	368.61	443.05	992.07	285.67	392.66	930.71	299.2	429.79	997.55	356.63	413.33	912.88	102.87	385.04	941.95	109.13	291.42	841.22	73.185	325.93	856.63	44.235	297.05	852.21	43.823	361.35	1043.5	36.955	418.57	1074.1	40.807	294.7	1137.7	59.917	349.03	817.99	673.88	92.5	906.99	615.42	62.194	843.87	586.5	101.26	874.23	705.24	59.114	891.75	518.05	65.899	951.72	503.08	208.03	770.13	468.29	64.13	744.29	361.15	82.197	712.34	417.1	71.826	801.73	411.34	70.136	544.62	284.71	114.37	584.69	263.28	204.79	495.79	332.11	175.18	486.19	310.78	211.09	470.3	313.05	150.76	539.36	123.2	93.48	587.42	102.86	205.41	614.23	53.469	144.52	786.2	1585.3	314.01	679.98	1276.8	313.41
421	1.75	983.02	1264	267.79	887.26	1504.7	464.6	856.84	1542	137.2	948.15	1829.8	319.5	938.52	1016.6	416.3	919.03	1011.8	150.2	693.46	1056.4	343.39	683.74	1051.2	240	870.59	966.7	502.08	808.13	959.74	80.309	860.34	1109.4	493.45	805.18	1097.2	86.725	674.93	1017.3	291.45	936.13	663.31	462.75	1020.8	615.8	427.12	960.94	581.18	435.79	998.9	699.8	455.68	997.81	526.95	425.58	989.16	536.72	282.95	939.86	368.62	443.2	992.92	285.5	392.73	931.65	299.24	429.92	998.69	356.43	413.44	913.01	102.95	385.03	942.05	109.19	291.41	841.29	73.296	325.95	856.67	44.335	297.04	852.26	43.92	361.36	1043.5	36.93	418.59	1074.1	40.781	294.69	1137.7	59.796	349.05	826.33	675.21	92.72	915.83	617.67	62.264	853.11	588.09	101.58	882.13	707.13	59.147	901.6	520.37	66.042	961.68	505.78	208.26	780.21	470.11	64.534	755.08	362.75	82.265	722.76	418.5	72.195	812.19	413.34	70.251	555.93	285.39	114.69	596.36	263.57	204.84	506.57	331.58	176.01	497.3	309.78	211.75	481.31	312.46	151.43	552.56	124.14	92.168	601	103.16	203.84	628.22	54.723	142.44	791.22	1586.4	314.48	684.88	1277.9	314.23
422	1.7542	987.8	1265.1	267.83	892.52	1505.8	464.82	861.39	1543.1	137.49	953.42	1830.8	319.77	943.52	1017.3	416.58	923.67	1013.1	150.4	698.37	1057.4	343.91	688.62	1052.3	240.53	875.45	967.36	502.36	813.05	961.11	80.653	865.51	1110.3	493.76	809.49	1098.3	87.138	679.79	1018.5	291.95	939	663.56	462.96	1023.3	615.47	427.29	963.19	581.25	435.96	1001.9	699.61	455.79	999.65	526.74	425.73	991.04	536.55	283.12	941	368.64	443.35	993.73	285.35	392.81	932.54	299.29	430.05	999.77	356.25	413.56	913.13	103.04	385.02	942.16	109.26	291.42	841.35	73.41	325.97	856.71	44.442	297.02	852.31	44.017	361.37	1043.5	36.901	418.61	1074.2	40.757	294.7	1137.8	59.677	349.07	834.61	676.6	92.877	924.64	619.97	62.354	862.27	589.74	101.84	890.01	709.07	59.171	911.37	522.71	66.213	971.55	508.56	208.49	790.23	471.84	64.959	765.9	364.25	82.336	733.16	419.75	72.578	822.63	415.28	70.38	567.34	285.77	114.97	608.13	263.64	204.88	517.39	330.71	176.77	508.48	308.46	212.33	492.39	311.5	152.04	566.03	124.79	90.913	614.82	103.3	202.36	642.54	55.837	140.48	796.23	1587.5	314.93	689.78	1279.1	315.04
423	1.7583	992.57	1266.1	267.87	897.76	1506.9	465.03	865.92	1544.1	137.78	958.68	1831.8	319.98	948.49	1018.2	416.87	928.33	1014.4	150.63	703.26	1058.5	344.38	693.51	1053.5	241	880.26	968.04	502.62	818.01	962.52	80.972	870.63	1111.3	494.04	813.85	1099.6	87.563	684.67	1019.6	292.38	941.8	663.82	463.18	1025.7	615.15	427.47	965.36	581.33	436.13	1004.9	699.43	455.9	1001.4	526.54	425.88	992.86	536.39	283.29	942.08	368.66	443.52	994.5	285.21	392.9	933.37	299.35	430.19	1000.8	356.08	413.69	913.25	103.12	385.01	942.28	109.34	291.43	841.41	73.526	326	856.76	44.552	297	852.35	44.115	361.39	1043.6	36.869	418.63	1074.2	40.736	294.7	1137.8	59.56	349.09	842.83	678.04	92.969	933.4	622.33	62.461	871.35	591.45	102.02	897.86	711.06	59.185	921.06	525.07	66.411	981.34	511.39	208.75	800.18	473.47	65.401	776.75	365.64	82.409	743.54	420.87	72.969	833.05	417.17	70.521	578.85	285.84	115.22	619.99	263.51	204.93	528.27	329.52	177.46	519.72	306.82	212.84	503.56	310.18	152.56	579.77	125.17	89.72	628.88	103.27	200.97	657.18	56.809	138.66	801.22	1588.6	315.35	694.67	1280.2	315.84
